<?xml version="1.0" standalone="no"?>
<!DOCTYPE svg PUBLIC "-//W3C//DTD SVG 1.1//EN" "http://www.w3.org/Graphics/SVG/1.1/DTD/svg11.dtd" >
<svg xmlns="http://www.w3.org/2000/svg" xmlns:xlink="http://www.w3.org/1999/xlink" version="1.1">
<metadata>
Created by FontForge 20161003 at Thu Apr  6 19:41:27 2017
 By www-data
Copyright (c) 2012, LatinoType (www.latinotype.com), with Reserved Font Name 'Julius'
</metadata>
<defs>
<font id="JuliusSansOneRegular" horiz-adv-x="883" >
  <font-face 
    font-family="JuliusSansOneRegular"
    font-weight="400"
    font-stretch="normal"
    units-per-em="1000"
    panose-1="2 0 0 0 0 0 0 0 0 0"
    ascent="800"
    descent="-200"
    x-height="649"
    cap-height="715"
    bbox="-44 -228 1469 863"
    underline-thickness="50"
    underline-position="-150"
    unicode-range="U+0020-FB02"
  />
<missing-glyph horiz-adv-x="260" 
 />
    <glyph glyph-name=".notdef" horiz-adv-x="260" 
 />
    <glyph glyph-name=".null" horiz-adv-x="0" 
 />
    <glyph glyph-name="nonmarkingreturn" horiz-adv-x="333" 
 />
    <glyph glyph-name="space" unicode=" " horiz-adv-x="360" 
 />
    <glyph glyph-name="exclam" unicode="!" horiz-adv-x="284" 
d="M110 20q0 14 9 23t23 9t23 -9t9 -23t-9 -23t-23 -9t-23 9t-9 23zM124 150l-5 500h46l-5 -500h-36z" />
    <glyph glyph-name="quotedbl" unicode="&#x22;" horiz-adv-x="227" 
d="M44 567l-8 148h45l-8 -148h-29zM154 567l-8 148h45l-8 -148h-29z" />
    <glyph glyph-name="numbersign" unicode="#" horiz-adv-x="646" 
d="M34 218v37h117l39 222h-110v37h116l37 207l43 -6l-36 -201h218l37 207l43 -6l-36 -201h110v-37h-116l-39 -222h110v-37h-117l-40 -229l-43 5l39 224h-218l-40 -229l-43 5l39 224h-110zM234 477l-39 -222h218l39 222h-218z" />
    <glyph glyph-name="dollar" unicode="$" horiz-adv-x="547" 
d="M136.5 462q-39.5 47 -39.5 114.5t52.5 109t132.5 41.5h2l11 107h40l-11 -109q76 -8 134 -34l-17 -39q-52 22 -121 29l-28 -285q91 -63 121 -94q57 -60 57 -130q0 -91 -61 -137.5t-158 -46.5l-9 -97h-40l10 99q-96 10 -155 53l24 36q56 -37 135 -46l33 330
q-73 52 -112.5 99zM372.5 67.5q44.5 34.5 44.5 91t-33.5 94t-97.5 83.5l-30 -304q72 1 116.5 35.5zM185 654.5q-35 -27.5 -35 -76t27.5 -84.5t77.5 -72l25 261q-60 -1 -95 -28.5z" />
    <glyph glyph-name="percent" unicode="%" horiz-adv-x="750" 
d="M130 -1l457 733l35 -21l-456 -732zM70 551q0 82 38.5 129t99.5 47t99 -47t38 -129t-40 -131.5t-97.5 -49.5t-97.5 49.5t-40 131.5zM111 551q0 -67 28 -105t69.5 -38t68.5 38t27 105t-27 104.5t-68.5 37.5t-69.5 -37.5t-28 -104.5zM405 169q0 82 38.5 129t99.5 47t99 -47
t38 -129t-40 -131.5t-97.5 -49.5t-97.5 49.5t-40 131.5zM446 169q0 -67 28 -105t69.5 -38t68.5 38t27 105t-27 104.5t-68.5 37.5t-69.5 -37.5t-28 -104.5z" />
    <glyph glyph-name="ampersand" unicode="&#x26;" horiz-adv-x="659" 
d="M559 275h39q-2 -93 -53 -163l104 -112h-60l-73 79q-48 -42 -110 -66t-120 -24q-97 0 -151.5 40.5t-54.5 113.5t43 123.5t121 103.5q-119 128 -119 197t45 108.5t131 39.5t129 -40.5t43 -97t-43 -106.5t-119 -109l207 -221q17 20 29 61t12 73zM292 28q101 0 195 81
l-213 228q-148 -90 -148 -180q0 -61 43 -95t123 -34zM428 569q0 50 -32.5 78t-91.5 28q-134 0 -134 -106q0 -28 17.5 -60.5t37.5 -55t56 -58.5q147 97 147 174z" />
    <glyph glyph-name="quotesingle" unicode="'" horiz-adv-x="117" 
d="M44 567l-8 148h45l-8 -148h-29z" />
    <glyph glyph-name="parenleft" unicode="(" horiz-adv-x="321" 
d="M90 267q0 148 52 264t133 182l26 -28q-68 -64 -113.5 -176.5t-45.5 -241.5t45.5 -241.5t113.5 -176.5l-26 -28q-81 66 -133 182t-52 264z" />
    <glyph glyph-name="parenright" unicode=")" horiz-adv-x="321" 
d="M231 267q0 -148 -52 -264t-133 -182l-26 28q68 64 113.5 176.5t45.5 241.5t-45.5 241.5t-113.5 176.5l26 28q81 -66 133 -182t52 -264z" />
    <glyph glyph-name="asterisk" unicode="*" horiz-adv-x="432" 
d="M238 404h-44v117l-101 -59l-22 38l102 59l-103 60l22 38l102 -60v118h44v-119l102 60l22 -37l-103 -60l102 -59l-22 -38l-101 59v-117z" />
    <glyph glyph-name="plus" unicode="+" horiz-adv-x="494" 
d="M227 167v157h-157v40h157v157h40v-157h157v-40h-157v-157h-40z" />
    <glyph glyph-name="comma" unicode="," horiz-adv-x="113" 
d="M30 53h53v-49l-42 -77h-23l12 61v65z" />
    <glyph glyph-name="hyphen" unicode="-" horiz-adv-x="494" 
d="M70 364h354v-40h-354v40z" />
    <glyph glyph-name="period" unicode="." horiz-adv-x="113" 
d="M30 0v53h53v-53h-53z" />
    <glyph glyph-name="slash" unicode="/" horiz-adv-x="370" 
d="M10 2l311 722l39 -15l-311 -722z" />
    <glyph glyph-name="zero" unicode="0" horiz-adv-x="655" 
d="M148.5 87.5q-68.5 99.5 -68.5 272t65.5 270t182.5 97.5t182 -97.5t65 -270t-68 -272t-179 -99.5t-179.5 99.5zM132 358q0 -155 52 -240.5t144.5 -85.5t143.5 85.5t51 240.5t-51 240t-143.5 85t-144.5 -85t-52 -240z" />
    <glyph glyph-name="one" unicode="1" horiz-adv-x="318" 
d="M186 715v-715h-48v654l-113 -60l-17 31l148 90h30z" />
    <glyph glyph-name="two" unicode="2" horiz-adv-x="620" 
d="M70 0v39q176 147 280 276t104 216t-41.5 119.5t-125.5 32.5t-172 -31l-12 40q98 35 191.5 35t152.5 -45t59 -144.5t-98 -227.5t-263 -269h399v-41h-474z" />
    <glyph glyph-name="three" unicode="3" horiz-adv-x="586" 
d="M88 691q98 37 181.5 37t135.5 -39.5t52 -98.5t-38.5 -107t-92.5 -77q74 -20 122 -67.5t48 -122.5q0 -99 -74 -165t-179 -66t-189 42l16 37q68 -35 164 -35t153 52.5t57 134.5q0 53 -39 92t-90 56t-100 17h-6v34q73 4 135 57.5t62 112.5q0 44 -37.5 71.5t-110.5 27.5
t-159 -30z" />
    <glyph glyph-name="four" unicode="4" horiz-adv-x="548" 
d="M368 0v230h-334v37l348 454h34v-447h114v-44h-114v-230h-48zM368 274v363l-280 -363h280z" />
    <glyph glyph-name="five" unicode="5" horiz-adv-x="561" 
d="M456 715v-40h-277l-12 -160q302 -64 302 -290q0 -93 -63.5 -165t-182.5 -72q-93 0 -159 33l16 39q70 -28 133 -28t102.5 18t60.5 48q41 57 41 127q0 205 -301 252l20 238h320z" />
    <glyph glyph-name="six" unicode="6" horiz-adv-x="604" 
d="M132 266q0 -123 50 -178.5t126.5 -55.5t125.5 54t49 129t-41 122.5t-109.5 47.5t-142.5 -36l-13 31q86 45 172.5 45t135.5 -58.5t49 -150t-65 -160t-158 -68.5q-94 0 -158 58q-73 65 -73 220q0 74 21 141.5t50 114t74.5 92t79 71t78.5 55.5l21 -32q-52 -34 -92 -68.5
t-85 -89.5q-95 -115 -95 -284z" />
    <glyph glyph-name="seven" unicode="7" horiz-adv-x="509" 
d="M70 671v44h406v-34l-287 -681h-53l284 671h-350z" />
    <glyph glyph-name="eight" unicode="8" horiz-adv-x="580" 
d="M168.5 680.5q51.5 46.5 134.5 46.5t127.5 -45.5t44.5 -106.5t-36 -101t-104 -80q80 -47 125.5 -95t45.5 -113q0 -84 -59.5 -141t-153 -57t-156.5 47.5t-63 129t44.5 130.5t124.5 96q-60 37 -93 76.5t-33 92.5q0 74 51.5 120.5zM454 186q0 55 -58 103q-50 42 -111 77
q-119 -68 -147 -131q-12 -29 -12 -63q0 -70 46.5 -105t121 -35t117.5 43t43 111zM395.5 651q-31.5 32 -94 32t-99.5 -33t-37 -83t32 -81t95 -67q67 38 101 71.5t34 81t-31.5 79.5z" />
    <glyph glyph-name="nine" unicode="9" horiz-adv-x="604" 
d="M472 449q0 123 -50 178.5t-126.5 55.5t-125.5 -54t-49 -129t41 -124.5t109.5 -49.5t142.5 36l13 -31q-86 -45 -172.5 -45t-135.5 60t-49 152t65 160.5t158 68.5q94 0 158 -57q73 -66 73 -221q0 -74 -21 -141.5t-50 -114t-74.5 -92t-79 -71t-78.5 -55.5l-21 32
q52 34 92 68.5t85 88.5q95 116 95 285z" />
    <glyph glyph-name="colon" unicode=":" horiz-adv-x="213" 
d="M80 445v53h53v-53h-53zM80 132v53h53v-53h-53z" />
    <glyph glyph-name="semicolon" unicode=";" horiz-adv-x="213" 
d="M80 445v53h53v-53h-53zM80 185h53v-49l-42 -77h-23l12 61v65z" />
    <glyph glyph-name="less" unicode="&#x3c;" horiz-adv-x="410" 
d="M327 125l-297 206l297 206l19 -27l-260 -179l260 -179z" />
    <glyph glyph-name="equal" unicode="=" horiz-adv-x="543" 
d="M70 477h403v-40h-403v40zM70 273h403v-40h-403v40z" />
    <glyph glyph-name="greater" unicode="&#x3e;" horiz-adv-x="410" 
d="M380 331l-297 -206l-19 27l260 179l-260 179l19 27z" />
    <glyph glyph-name="question" unicode="?" horiz-adv-x="474" 
d="M207 166h-38q0 58 21.5 106.5t52.5 81.5t61 64q74 73 74 138t-42.5 97.5t-122 32.5t-145.5 -44l-18 30q30 24 78 38.5t97 14.5q88 0 143.5 -42.5t55.5 -125.5q0 -77 -76 -153q-32 -32 -64 -64.5t-54.5 -77.5t-22.5 -96zM157 20q0 14 9.5 23t22.5 9t22.5 -9t9.5 -23
t-9.5 -23t-22.5 -9t-22.5 9t-9.5 23z" />
    <glyph glyph-name="at" unicode="@" horiz-adv-x="911" 
d="M476 575l-118 -224h183zM640 41q-94 -54 -233 -54t-228 92t-89 234q0 170 122 294t286 124q138 0 230.5 -96t92.5 -234q0 -111 -40.5 -177.5t-111.5 -66.5q-44 0 -65 26t-35 73l-19 66h-208l-83 -157h-38l246 458h26l108 -351q13 -40 23 -57q16 -29 51 -29q54 0 83 57
t29 154q0 128 -83.5 215t-211.5 87q-97 0 -182 -53t-135.5 -142t-50.5 -190q0 -127 82 -211.5t206.5 -84.5t216.5 48z" />
    <glyph glyph-name="A" unicode="A" horiz-adv-x="663" 
d="M170 248l-103 -248h-51l301 720h28l302 -720h-54l-103 248h-320zM328 640q-1 -1 -4 -12q-14 -43 -27 -73l-110 -266h286l-110 265q-35 76 -35 86z" />
    <glyph glyph-name="B" unicode="B" horiz-adv-x="629" 
d="M132 713q78 6 159.5 6t141 -40t59.5 -116q0 -57 -31.5 -106t-75.5 -74q71 -22 119 -76t48 -121q0 -94 -59.5 -143t-163 -49t-197.5 8v711zM455 77.5q47 40.5 47 103.5t-45.5 109t-124.5 63q-37 8 -85.5 8h-66.5v-319q44 -5 155 -5q73 0 120 40.5zM398.5 649
q-45.5 30 -102 30t-116.5 -4v-273h49t106 -6q45 24 77 69t32 99.5t-45.5 84.5z" />
    <glyph glyph-name="C" unicode="C" horiz-adv-x="745" 
d="M470 -12q-156 0 -268 106.5t-112 263t98 263t251 106.5q120 0 243 -40l-13 -40q-120 36 -230 36q-131 0 -214 -94t-83 -230t96.5 -231.5t231.5 -95.5q118 0 204 36l15 -34q-38 -22 -99.5 -34t-119.5 -12z" />
    <glyph glyph-name="D" unicode="D" horiz-adv-x="815" 
d="M361 35q141 0 226.5 76.5t85.5 230.5t-96.5 245t-238.5 91q-91 0 -158 -5v-630q65 -8 181 -8zM338 722q165 0 276 -102.5t111 -278.5q0 -89 -28.5 -157.5t-78.5 -109.5q-103 -83 -257 -83q-101 0 -229 11v713q102 7 206 7z" />
    <glyph glyph-name="E" unicode="E" horiz-adv-x="535" 
d="M132 0v715h332v-42h-284v-263h257v-41h-257v-327h295v-42h-343z" />
    <glyph glyph-name="F" unicode="F" horiz-adv-x="553" 
d="M132 0v715h365v-42h-317v-263h290v-41h-290v-369h-48z" />
    <glyph glyph-name="G" unicode="G" horiz-adv-x="822" 
d="M225 589q-83 -94 -83 -230.5t94 -231.5t229 -95q116 0 193 32v294h48v-316q-87 -54 -243.5 -54t-264.5 107.5t-108 263t98 262t251 106.5q120 0 243 -40l-13 -40q-120 36 -230 36q-131 0 -214 -94z" />
    <glyph glyph-name="H" unicode="H" horiz-adv-x="851" 
d="M671 0v358h-491v-358h-48v715h48v-314h491v314h48v-715h-48z" />
    <glyph glyph-name="I" unicode="I" horiz-adv-x="312" 
d="M132 0v715h48v-715h-48z" />
    <glyph glyph-name="J" unicode="J" horiz-adv-x="312" 
d="M132 80v635h48v-603q0 -134 -56 -214q-28 -41 -57 -68.5t-71 -57.5l-21 31q157 115 157 277z" />
    <glyph glyph-name="K" unicode="K" horiz-adv-x="620" 
d="M562 715l-304 -346q61 -73 140.5 -163t103 -111t37 -31.5t41.5 -23t60 -16.5l-1 -32q-60 1 -99 18.5t-68 46t-126.5 140t-146.5 170.5l307 348h56zM180 715v-715h-48v715h48z" />
    <glyph glyph-name="L" unicode="L" horiz-adv-x="531" 
d="M132 0v715h48v-671h329v-44h-377z" />
    <glyph glyph-name="M" unicode="M" horiz-adv-x="940" 
d="M470 37h-27l-209 506q-18 42 -29 74l-10 -76l-82 -541h-49l118 721h28l223 -530q17 -37 27 -70q3 11 31 69l249 531h27l109 -721h-50l-78 543q-8 51 -8 77q-1 -1 -4.5 -9.5t-12 -28t-17.5 -40.5z" />
    <glyph glyph-name="N" unicode="N" horiz-adv-x="875" 
d="M178 601l2 -85v-516h-48v721h22l471 -543q48 -57 74 -91q-4 48 -4 110v518h48v-721h-22l-480 553q-50 57 -64 76z" />
    <glyph glyph-name="O" unicode="O" 
d="M90 358q0 156 99.5 262.5t251.5 106.5t252 -106.5t100 -262.5t-100 -263t-252 -107t-251.5 107t-99.5 263zM142 358q0 -138 83.5 -232t216 -94t216 94t83.5 232t-83.5 231.5t-216.5 93.5t-216 -93.5t-83 -231.5z" />
    <glyph glyph-name="P" unicode="P" horiz-adv-x="581" 
d="M132 0v711q83 8 161 8q105 0 168.5 -49t63.5 -147.5t-86.5 -162t-206.5 -63.5h-11v33h7q99 0 172 52t73 135.5t-51 121t-137 37.5q-45 0 -105 -4v-672h-48z" />
    <glyph glyph-name="Q" unicode="Q" 
d="M90 358q0 156 99.5 262.5t251.5 106.5t252 -106.5t100 -262.5q0 -92 -37.5 -170.5t-103.5 -129.5q205 -124 316 -162q132 -45 238 -45q61 0 139 16t112 33l12 -28q-39 -20 -119.5 -39t-143.5 -19t-133.5 15.5t-121 32.5t-125.5 54t-107.5 55.5t-105.5 60.5
q-79 -44 -172 -44q-152 0 -251.5 107t-99.5 263zM142 358q0 -138 83.5 -232t215.5 -94q72 0 130 29q-125 85 -197 85q-45 0 -73 -16l-16 29q37 25 91 25t108.5 -26t125.5 -74q62 44 96.5 116t34.5 158q0 138 -83.5 231.5t-216.5 93.5t-216 -93.5t-83 -231.5z" />
    <glyph glyph-name="R" unicode="R" horiz-adv-x="658" 
d="M132 0v712q95 7 159 7q102 0 168 -52.5t66 -148.5q0 -65 -38 -121t-85 -89q37 -51 91.5 -121.5t70.5 -88.5q61 -65 138 -74l-1 -32q-61 1 -99 18.5t-72.5 53.5t-171.5 224q-98 0 -178 6v-294h-48zM329 328q44 0 94 58t50 134.5t-51.5 116t-136.5 39.5q-45 0 -105 -4v-339
q80 -5 149 -5z" />
    <glyph glyph-name="S" unicode="S" horiz-adv-x="547" 
d="M441 652q-73 31 -145 31q-146 0 -146 -108q0 -47 33 -87.5t80 -72t94 -64.5t80 -79t33 -100q0 -91 -61 -137.5t-168.5 -46.5t-183.5 55l24 36q72 -47 158 -47t132 34.5t46 99.5q0 45 -33 85.5t-80 73t-94 66.5t-80 81t-33 101q0 71 52.5 112.5t142 41.5t166.5 -36z" />
    <glyph glyph-name="T" unicode="T" horiz-adv-x="576" 
d="M264 673h-242v42h532v-42h-242v-673h-48v673z" />
    <glyph glyph-name="U" unicode="U" horiz-adv-x="807" 
d="M404 -12q-141 0 -210.5 82t-69.5 224v421h48v-421q0 -264 231.5 -264t231.5 264v421h48v-421q0 -143 -69 -224.5t-210 -81.5z" />
    <glyph glyph-name="V" unicode="V" horiz-adv-x="677" 
d="M370 145l240 570h51l-308 -721h-28l-309 721h54l240 -568q25 -61 31 -84q8 32 29 82z" />
    <glyph glyph-name="W" unicode="W" horiz-adv-x="1040" 
d="M317 173l207 528h29l181 -532q21 -63 28 -91q8 33 28 90l184 547h50l-249 -721h-28l-185 530q-4 13 -8.5 26t-7.5 23t-6 17l-4 12q-1 5 -1 6q-12 -36 -31 -83l-209 -531h-28l-251 721h53l183 -538q13 -36 21.5 -65t9.5 -32q5 23 34 93z" />
    <glyph glyph-name="X" unicode="X" horiz-adv-x="584" 
d="M53 715h59l192 -314l200 314h53l-230 -351l231 -364h-58l-206 332l-215 -332h-53l244 370z" />
    <glyph glyph-name="Y" unicode="Y" horiz-adv-x="619" 
d="M333 0h-48v256l-269 459h58l208 -362q18 -32 30 -56q4 13 28 54l208 364h55l-270 -461v-254z" />
    <glyph glyph-name="Z" unicode="Z" horiz-adv-x="631" 
d="M557 715v-22l-421 -651h429v-42h-499v23l421 650h-395v42h465z" />
    <glyph glyph-name="bracketleft" unicode="[" horiz-adv-x="344" 
d="M132 -119v834h196v-44h-148v-746h148v-44h-196z" />
    <glyph glyph-name="backslash" unicode="\" horiz-adv-x="370" 
d="M49 724l311 -722l-39 -15l-311 722z" />
    <glyph glyph-name="bracketright" unicode="]" horiz-adv-x="344" 
d="M212 715v-834h-196v44h148v746h-148v44h196z" />
    <glyph glyph-name="asciicircum" unicode="^" horiz-adv-x="362" 
d="M181 560l-99 -138l-22 16l121 203l121 -203l-22 -16z" />
    <glyph glyph-name="underscore" unicode="_" horiz-adv-x="472" 
d="M0 -37h472v-44h-472v44z" />
    <glyph glyph-name="grave" unicode="`" horiz-adv-x="270" 
d="M195 540l-155 80l57 23l133 -93z" />
    <glyph glyph-name="a" unicode="a" horiz-adv-x="597" 
d="M152 225l-93 -225h-47l272 653h27l274 -653h-51l-94 225h-288zM295 579q-15 -45 -27 -75l-100 -240h256l-99 239q-23 56 -30 76z" />
    <glyph glyph-name="b" unicode="b" horiz-adv-x="572" 
d="M119 646q71 6 146 6t128.5 -36t53.5 -105q0 -52 -28 -96t-68 -67q65 -19 108 -68t43 -111q0 -86 -54.5 -130t-153.5 -44t-175 7v644zM210 328l-45 -1v-287q43 -4 139 -4q65 0 107.5 36.5t42.5 92t-42.5 97t-110.5 58.5q-35 8 -91 8zM361 587.5q-41 26.5 -98 26.5t-98 -3
v-245q87 0 139 -5q39 21 68.5 61.5t29.5 89.5t-41 75.5z" />
    <glyph glyph-name="c" unicode="c" horiz-adv-x="669" 
d="M625 32q-75 -42 -208.5 -42t-235 96t-101.5 238.5t88.5 238.5t228.5 96q113 0 221 -35l-12 -38q-104 32 -215 32t-186.5 -84.5t-75.5 -207t87.5 -208.5t202.5 -86t191 32z" />
    <glyph glyph-name="d" unicode="d" horiz-adv-x="739" 
d="M328 34q128 0 205.5 69t77.5 208t-87.5 221t-215.5 82q-91 0 -140 -4v-569q60 -7 160 -7zM308 655q150 0 250.5 -92.5t100.5 -251.5t-92.5 -239t-238.5 -80q-101 0 -208 10v647q80 6 188 6z" />
    <glyph glyph-name="e" unicode="e" horiz-adv-x="497" 
d="M120 0v649h303v-40h-257v-236h232v-39h-232v-292h267v-42h-313z" />
    <glyph glyph-name="f" unicode="f" horiz-adv-x="511" 
d="M120 0v649h333v-40h-287v-236h262v-39h-262v-334h-46z" />
    <glyph glyph-name="g" unicode="g" horiz-adv-x="738" 
d="M204.5 533.5q-75.5 -84.5 -75.5 -207.5t85 -208.5t200.5 -85.5t179.5 27v267h46v-288q-78 -48 -221 -48t-241 97t-98 238.5t88.5 237.5t228.5 96q113 0 221 -35l-12 -38q-104 32 -215 32t-186.5 -84.5z" />
    <glyph glyph-name="h" unicode="h" horiz-adv-x="783" 
d="M617 0v328h-451v-328h-46v649h46v-280h451v280h46v-649h-46z" />
    <glyph glyph-name="i" unicode="i" horiz-adv-x="286" 
d="M120 0v649h46v-649h-46z" />
    <glyph glyph-name="j" unicode="j" horiz-adv-x="285" 
d="M120 74v575h45v-546q0 -81 -25 -143t-58 -96t-85 -71l-21 30q144 105 144 251z" />
    <glyph glyph-name="k" unicode="k" horiz-adv-x="566" 
d="M514 649l-277 -313q164 -199 224.5 -252t120.5 -60l-1 -31q-56 1 -91 16.5t-62 41.5t-115.5 127.5t-132.5 155.5l279 315h55zM166 649v-649h-46v649h46z" />
    <glyph glyph-name="l" unicode="l" horiz-adv-x="480" 
d="M120 0v649h46v-607h298v-42h-344z" />
    <glyph glyph-name="m" unicode="m" horiz-adv-x="841" 
d="M421 34h-27l-189 459q-12 27 -24 63q0 -1 -1.5 -11t-3.5 -26.5t-4 -27.5l-75 -491h-45l106 653h27l202 -479q24 -60 24 -63q7 21 27 62l225 480h27l99 -653h-48l-71 493q-7 49 -7 65l-29 -66z" />
    <glyph glyph-name="n" unicode="n" horiz-adv-x="795" 
d="M120 0v653h22l426 -490q23 -26 42.5 -51.5t20.5 -26.5q-2 24 -2 94v470h46v-653h-22l-434 498l-55 67q2 -20 2 -94v-467h-46z" />
    <glyph glyph-name="o" unicode="o" horiz-adv-x="814" 
d="M174 87q-94 97 -94 237.5t94 237.5t233 97t233 -97t94 -237.5t-94 -237.5t-233 -97t-233 97zM207.5 533q-79.5 -85 -79.5 -208.5t79.5 -208t200 -84.5t199.5 84.5t79 208t-79 208.5t-199.5 85t-200 -85z" />
    <glyph glyph-name="p" unicode="p" horiz-adv-x="528" 
d="M120 0v645q75 8 158.5 8t141.5 -44.5t58 -134.5t-79 -147.5t-187 -57.5h-11v32h7q89 0 155 47t66 122t-46.5 109t-122.5 34q-40 0 -94 -4v-609h-46z" />
    <glyph glyph-name="q" unicode="q" horiz-adv-x="813" 
d="M174 87q-94 97 -94 237.5t94 237.5t233 97t232.5 -97t93.5 -237q0 -83 -35 -154t-96 -117q238 -141 366 -170q66 -16 127 -16t131.5 14t100.5 29l11 -26q-38 -18 -110.5 -35.5t-136 -17.5t-135.5 16.5t-150 52.5t-120.5 58.5t-122.5 69.5q-72 -39 -156 -39
q-139 0 -233 97zM207 533q-79 -85 -79 -208.5t79 -208t200 -84.5q63 0 114 24q-113 76 -176 76q-36 0 -66 -14l-15 28q34 22 76 22t82 -15t67.5 -31t71.5 -45q58 39 91.5 104.5t33.5 143.5q0 123 -79.5 208t-200 85t-199.5 -85z" />
    <glyph glyph-name="r" unicode="r" horiz-adv-x="608" 
d="M120 0v646q86 7 146 7q92 0 152 -47.5t60 -135.5q0 -59 -34 -109t-77 -81q119 -158 147 -189q57 -59 124 -67l-1 -31q-56 1 -91 16.5t-69.5 52.5t-151.5 199q-81 0 -159 5v-266h-46zM300 299q39 0 84 52t45 121t-47 105t-122 36q-40 0 -94 -4v-305q72 -5 134 -5z" />
    <glyph glyph-name="s" unicode="s" horiz-adv-x="485" 
d="M251 621q-54 0 -88 -26t-34 -73q0 -54 45 -97q32 -31 82.5 -65.5t69.5 -49.5t46 -41q49 -49 49 -113q0 -83 -55.5 -125.5t-155 -42.5t-166.5 52l24 35q68 -46 144 -46t118.5 32t42.5 90q0 50 -43 92q-30 30 -80.5 65t-70.5 50.5t-47 41.5q-51 51 -51 118t47.5 105
t131.5 38t151 -33l-17 -37q-62 30 -143 30z" />
    <glyph glyph-name="t" unicode="t" horiz-adv-x="517" 
d="M236 608h-220v41h485v-41h-220v-608h-45v608z" />
    <glyph glyph-name="u" unicode="u" horiz-adv-x="762" 
d="M381 -10q-135 0 -201 77t-66 213v369h46v-369q0 -249 221 -249t221 249v369h46v-369q0 -136 -66 -213t-201 -77z" />
    <glyph glyph-name="v" unicode="v" horiz-adv-x="609" 
d="M332 136l217 513h48l-279 -653h-27l-279 653h50l245 -577q5 15 25 64z" />
    <glyph glyph-name="w" unicode="w" horiz-adv-x="939" 
d="M285 158l187 478h29l163 -481l24 -81q3 19 25 80l166 495h48l-226 -653h-27q-167 479 -173 498q-9 27 -18 53q-5 -17 -27 -71l-189 -480h-27l-228 653h51l165 -487q14 -40 26 -89q5 20 31 85z" />
    <glyph glyph-name="x" unicode="x" horiz-adv-x="518" 
d="M41 649h56l173 -281l181 281h50l-208 -318l209 -331h-55l-186 298l-194 -298h-51l222 336z" />
    <glyph glyph-name="y" unicode="y" horiz-adv-x="559" 
d="M302 0h-45v232l-245 417h55l189 -322q22 -44 25 -47q6 13 25 46l189 323h52l-245 -419v-230z" />
    <glyph glyph-name="z" unicode="z" horiz-adv-x="562" 
d="M503 649v-22l-382 -585h387v-42h-454v23l382 586h-357v40h424z" />
    <glyph glyph-name="braceleft" unicode="{" horiz-adv-x="290" 
d="M137 445q0 25 -11 74.5t-11 75.5q0 66 27 96.5t90 30.5v-37q-37 0 -54.5 -21t-17.5 -74q0 -21 10.5 -65.5t10.5 -67.5q0 -108 -91 -139q91 -31 91 -139q0 -23 -10.5 -67.5t-10.5 -65.5q0 -53 17.5 -74t54.5 -21v-37q-63 0 -90 30.5t-27 96.5q0 26 11 75.5t11 74.5
q0 52 -34 78.5t-83 30.5v36q49 4 83 30.5t34 78.5z" />
    <glyph glyph-name="bar" unicode="|" horiz-adv-x="281" 
d="M120 -224v936h41v-936h-41z" />
    <glyph glyph-name="braceright" unicode="}" horiz-adv-x="290" 
d="M153 191q0 -25 11 -74.5t11 -75.5q0 -66 -27 -96.5t-90 -30.5v37q37 0 54.5 21t17.5 74q0 21 -10.5 65.5t-10.5 67.5q0 108 91 139q-91 31 -91 139q0 23 10.5 67.5t10.5 65.5q0 53 -17.5 74t-54.5 21v37q63 0 90 -30.5t27 -96.5q0 -26 -11 -75.5t-11 -74.5
q0 -52 34 -78.5t83 -30.5v-36q-49 -4 -83 -30.5t-34 -78.5z" />
    <glyph glyph-name="asciitilde" unicode="~" horiz-adv-x="646" 
d="M328 364q-85 50 -116 50t-60.5 -28.5t-50.5 -62.5l-31 18q29 46 51 70q39 44 92 44q34 0 76 -21q32 -16 41.5 -21.5t22 -12.5t18 -9.5t16 -7.5t17.5 -7q19 -6 30 -6q51 0 110 91l32 -19q-51 -82 -96 -102q-23 -11 -41.5 -11t-30.5 2.5t-20.5 4.5t-21.5 8.5t-18.5 9
t-19.5 10.5z" />
    <glyph glyph-name="uni00A0" unicode="&#xa0;" horiz-adv-x="260" 
 />
    <glyph glyph-name="exclamdown" unicode="&#xa1;" horiz-adv-x="284" 
d="M110 618q0 14 9 23t23 9t23 -9t9 -23t-9 -23t-23 -9t-23 9t-9 23zM119 -12l5 500h36l5 -500h-46z" />
    <glyph glyph-name="cent" unicode="&#xa2;" horiz-adv-x="669" 
d="M80 325q0 139 85.5 234.5t221.5 99.5l14 144h40l-14 -144q98 -5 191 -34l-12 -37q-97 28 -183 31l-58 -583q29 -6 60 -6q110 0 186 32l14 -31q-74 -41 -200 -41q-33 0 -64 6l-13 -136h-40l14 145q-106 32 -174 118.5t-68 201.5zM127 325q0 -95 55.5 -171t143.5 -107
l57 573q-114 -6 -185 -90t-71 -205z" />
    <glyph glyph-name="sterling" unicode="&#xa3;" horiz-adv-x="536" 
d="M15 428h105v82q0 111 45.5 163t148.5 52q81 0 178 -32l-11 -36q-84 28 -166.5 28t-114.5 -40t-32 -135v-82h254v-44h-254v-340h324v-44h-477v44h105v340h-105v44z" />
    <glyph glyph-name="currency" unicode="&#xa4;" horiz-adv-x="523" 
d="M134 222q-30 43 -30 97.5t29 95.5l-63 64l31 31l61 -63q44 36 99.5 36t99.5 -34l61 61l31 -31l-62 -62q31 -46 31 -100t-32 -97l63 -62l-31 -31l-62 62q-42 -33 -99 -33t-97 34l-63 -63l-31 31zM148 319q0 -52 32 -86t83 -34t83 34t32 86t-32 86t-83 34t-83 -34t-32 -86z
" />
    <glyph glyph-name="yen" unicode="&#xa5;" horiz-adv-x="611" 
d="M507 327v-44h-178v-123h178v-44h-178v-116h-48v116h-177v44h177v123h-177v44h169l-261 388h58l202 -303q20 -30 36 -56q1 4 34 54l202 305h55l-261 -388h169z" />
    <glyph glyph-name="brokenbar" unicode="&#xa6;" horiz-adv-x="281" 
d="M120 364v348h41v-348h-41zM120 -224v347h41v-347h-41z" />
    <glyph glyph-name="section" unicode="&#xa7;" horiz-adv-x="499" 
d="M391 384q30 -34 30 -88.5t-38 -94t-96 -56.5q59 -27 92 -59.5t33 -84.5q0 -83 -55.5 -125.5t-143.5 -42.5q-49 0 -97 14.5t-78 37.5l21 32q67 -45 144.5 -45t120 32.5t42.5 91.5q0 32 -21.5 57t-54.5 40t-70.5 33t-70.5 36t-54.5 50t-21.5 74q0 61 43.5 96t116.5 44
q-113 52 -137 104q-11 25 -11 58q0 64 46.5 101.5t125.5 37.5t150 -34l-15 -35q-62 30 -128.5 30t-99.5 -25.5t-33 -68.5t30 -71.5t72.5 -47t85 -38t72.5 -53.5zM331 210q44 34 44 89t-75 95h-28t-59 -7.5t-65 -33t-29 -66t28.5 -66.5t82.5 -51q57 6 101 40z" />
    <glyph glyph-name="dieresis" unicode="&#xa8;" horiz-adv-x="354" 
d="M40 543v53h53v-53h-53zM261 543v53h53v-53h-53z" />
    <glyph glyph-name="copyright" unicode="&#xa9;" 
d="M595 161q-54 -30 -143.5 -30t-157.5 64.5t-68 160t59.5 160t144.5 64.5t161 -24l-12 -33q-82 21 -141 21q-75 0 -123.5 -54t-48.5 -133t56.5 -134t131 -55t128.5 22zM90 358q0 156 99.5 262.5t251.5 106.5t252 -106.5t100 -262.5t-100 -263t-252 -107t-251.5 107
t-99.5 263zM217.5 594.5q-86.5 -94.5 -86.5 -236t86.5 -237t223.5 -95.5t224 95.5t87 237t-86.5 236t-224 94.5t-224 -94.5z" />
    <glyph glyph-name="ordfeminine" unicode="&#xaa;" horiz-adv-x="402" 
d="M139 503l-44 -103h-35l131 312h20l131 -312h-35l-44 103h-124zM251 532l-42 103q-8 18 -8 23q-3 -6 -5 -12.5t-4 -11.5l-43 -102h102z" />
    <glyph glyph-name="guillemotleft" unicode="&#xab;" horiz-adv-x="452" 
d="M373 146l-163 186l163 186l29 -24l-142 -162l142 -162zM213 146l-163 186l163 186l29 -24l-142 -162l142 -162z" />
    <glyph glyph-name="logicalnot" unicode="&#xac;" horiz-adv-x="635" 
d="M523 94v230h-453v41h494v-271h-41z" />
    <glyph glyph-name="uni00AD" unicode="&#xad;" horiz-adv-x="494" 
d="M70 364h354v-40h-354v40z" />
    <glyph glyph-name="registered" unicode="&#xae;" 
d="M90 358q0 156 99.5 262.5t251.5 106.5t252 -106.5t100 -262.5t-100 -263t-252 -107t-251.5 107t-99.5 263zM217.5 594.5q-86.5 -94.5 -86.5 -236t86.5 -237t223.5 -95.5t224 95.5t87 237t-86.5 236t-224 94.5t-224 -94.5zM316 137v436q99 3 125 3q62 0 101.5 -32.5
t39.5 -85t-28.5 -90.5t-57.5 -54l78 -110q22 -31 57 -36v-29q-36 0 -52.5 7t-33.5 32l-92 132q-37 0 -97 4v-177h-40zM463 343q25 0 51.5 33t26.5 76.5t-28.5 66t-83 22.5t-73.5 -2v-193q51 -3 107 -3z" />
    <glyph glyph-name="macron" unicode="&#xaf;" horiz-adv-x="380" 
d="M70 743h240v-40h-240v40z" />
    <glyph glyph-name="degree" unicode="&#xb0;" horiz-adv-x="360" 
d="M101 539q-31 34 -31 82.5t31 82t78.5 33.5t79 -33.5t31.5 -82t-31.5 -82.5t-79 -34t-78.5 34zM125.5 680.5q-20.5 -23.5 -20.5 -59.5t20.5 -59.5t54.5 -23.5t54.5 23.5t20.5 59.5t-20.5 59.5t-54.5 23.5t-54.5 -23.5z" />
    <glyph glyph-name="plusminus" unicode="&#xb1;" horiz-adv-x="494" 
d="M225 167v155h-155v44h155v155h44v-155h155v-44h-155v-155h-44zM70 44h354v-44h-354v44z" />
    <glyph glyph-name="twosuperior" unicode="&#xb2;" horiz-adv-x="420" 
d="M60 293v36q220 183 220 278q0 42 -21 58.5t-69.5 16.5t-99.5 -21l-13 42q64 22 121 22q129 0 129 -118q0 -112 -189 -272h222v-42h-300z" />
    <glyph glyph-name="threesuperior" unicode="&#xb3;" horiz-adv-x="395" 
d="M82 700q59 25 112.5 25t85 -25t31.5 -66q0 -55 -60 -98q84 -33 84 -112q0 -60 -45 -100t-111.5 -40t-118.5 28l16 36q48 -21 99 -21t81 27.5t30 69t-41.5 64t-78.5 22.5q-7 0 -13 -1v38q43 0 77.5 28t34.5 54q0 52 -71 52q-46 0 -101 -20z" />
    <glyph glyph-name="acute" unicode="&#xb4;" horiz-adv-x="260" 
d="M220 593l-146 -53l-34 10l174 96z" />
    <glyph glyph-name="mu" unicode="&#xb5;" horiz-adv-x="746" 
d="M116 280v370h44v-370q0 -121 48.5 -186t164.5 -65t164.5 65t48.5 186v370h44v-370q0 -290 -257 -290q-160 0 -220 113q-19 -182 -75 -331h-44q84 219 85 449q-3 29 -3 59z" />
    <glyph glyph-name="paragraph" unicode="&#xb6;" horiz-adv-x="623" 
d="M491 -133h-38v815l-39 2v-873h-38v872q-12 1 -24 1q-54 0 -96 -30q-51 -37 -51 -115.5t40 -128t94 -50.5v-30h-12q-111 0 -194 56t-83 151.5t63 142t161 46.5q46 0 217 -11v-848z" />
    <glyph glyph-name="periodcentered" unicode="&#xb7;" horiz-adv-x="213" 
d="M80 361v53h53v-53h-53z" />
    <glyph glyph-name="cedilla" unicode="&#xb8;" horiz-adv-x="302" 
d="M92 -151q20 -25 46.5 -25t39.5 14t13 37t-13.5 37t-30.5 14t-30 -5l-29 12l26 67h40l-15 -43q7 1 13 1q32 0 56 -22.5t24 -59.5t-25.5 -62t-67.5 -25t-69 38z" />
    <glyph glyph-name="onesuperior" unicode="&#xb9;" horiz-adv-x="212" 
d="M152 720v-425h-45v366l-61 -31l-16 34l94 56h28z" />
    <glyph glyph-name="ordmasculine" unicode="&#xba;" horiz-adv-x="425" 
d="M103 441q-43 47 -43 114.5t43 113.5t109 46t109.5 -46t43.5 -113.5t-43.5 -114.5t-109.5 -47t-109 47zM134 639.5q-29 -32.5 -29 -84.5t29 -84.5t78.5 -32.5t78.5 32.5t29 84.5t-29 84.5t-78.5 32.5t-78.5 -32.5z" />
    <glyph glyph-name="guillemotright" unicode="&#xbb;" horiz-adv-x="452" 
d="M242 332l-163 -186l-29 24l142 162l-142 162l29 24zM402 332l-163 -186l-29 24l142 162l-142 162l29 24z" />
    <glyph glyph-name="onequarter" unicode="&#xbc;" horiz-adv-x="720" 
d="M539 0v132h-190v32l202 264h33v-254h66v-42h-66v-132h-45zM539 174v172l-131 -172h131zM192 700v-425h-45v366l-61 -31l-16 34l94 56h28zM97 -1l457 733l35 -21l-456 -732z" />
    <glyph glyph-name="onehalf" unicode="&#xbd;" horiz-adv-x="825" 
d="M192 700v-425h-45v366l-61 -31l-16 34l94 56h28zM455 0v36q220 183 220 278q0 42 -21 58.5t-69.5 16.5t-99.5 -21l-13 42q64 22 121 22q129 0 129 -118q0 -112 -189 -272h222v-42h-300zM97 -1l457 733l35 -21l-456 -732z" />
    <glyph glyph-name="threequarters" unicode="&#xbe;" horiz-adv-x="791" 
d="M192 700v-425h-45v366l-61 -31l-16 34l94 56h28zM468 406q59 25 112.5 25t85 -25t31.5 -66q0 -55 -60 -98q84 -33 84 -112q0 -60 -45 -100t-111.5 -40t-118.5 28l16 36q48 -21 99 -21t81 27.5t30 69t-41.5 64t-78.5 22.5q-7 0 -13 -1v38q43 0 77.5 28t34.5 54
q0 52 -71 52q-46 0 -101 -20zM97 -1l457 733l35 -21l-456 -732z" />
    <glyph glyph-name="questiondown" unicode="&#xbf;" horiz-adv-x="474" 
d="M267 549h38q0 -58 -21.5 -106.5t-52.5 -81.5t-61 -63q-74 -74 -74 -139t42.5 -97.5t122 -32.5t145.5 44l18 -30q-30 -24 -78 -38.5t-97 -14.5q-88 0 -143.5 42.5t-55.5 125.5q0 77 76 154q32 31 64 63.5t54.5 77.5t22.5 96zM317 695q0 -13 -9.5 -22.5t-22.5 -9.5
t-22.5 9.5t-9.5 22.5t9.5 22.5t22.5 9.5t22.5 -9.5t9.5 -22.5z" />
    <glyph glyph-name="Agrave" unicode="&#xc0;" horiz-adv-x="663" 
d="M170 248l-103 -248h-51l301 720h28l302 -720h-54l-103 248h-320zM328 640q-1 -1 -4 -12q-14 -43 -27 -73l-110 -266h286l-110 265q-35 76 -35 86zM342 757l-155 80l57 23l133 -93z" />
    <glyph glyph-name="Aacute" unicode="&#xc1;" horiz-adv-x="663" 
d="M170 248l-103 -248h-51l301 720h28l302 -720h-54l-103 248h-320zM328 640q-1 -1 -4 -12q-14 -43 -27 -73l-110 -266h286l-110 265q-35 84 -35 86zM470 810l-146 -53l-34 10l174 96z" />
    <glyph glyph-name="Acircumflex" unicode="&#xc2;" horiz-adv-x="663" 
d="M170 248l-103 -248h-51l301 720h28l302 -720h-54l-103 248h-320zM328 640q-1 -1 -4 -12q-14 -43 -27 -73l-110 -266h286l-110 265q-35 76 -35 86zM325 802l-104 -51l-13 18l117 89l117 -89l-13 -18z" />
    <glyph glyph-name="Atilde" unicode="&#xc3;" horiz-adv-x="663" 
d="M170 248l-103 -248h-51l301 720h28l302 -720h-54l-103 248h-320zM328 640q-1 -1 -4 -12q-14 -43 -27 -73l-110 -266h286l-110 265q-35 76 -35 86zM246 818q-38 0 -76 -61l-26 17q14 22 24.5 36t33 30t39 16t25.5 -1.5t19.5 -6t15 -6.5t18 -9t15.5 -8q48 -27 69 -27
q38 0 76 61l26 -17q-14 -22 -24.5 -36t-33 -30t-39 -16t-25.5 1.5t-19.5 6t-15 6.5t-18 9t-15.5 8q-48 27 -69 27z" />
    <glyph glyph-name="Adieresis" unicode="&#xc4;" horiz-adv-x="663" 
d="M170 248l-103 -248h-51l301 720h28l302 -720h-54l-103 248h-320zM328 640q-1 -1 -4 -12q-14 -43 -27 -73l-110 -266h286l-110 265q-35 76 -35 86zM188 760v53h53v-53h-53zM409 760v53h53v-53h-53z" />
    <glyph glyph-name="Aring" unicode="&#xc5;" horiz-adv-x="663" 
d="M263 717.5q-15 22.5 -15 54.5t23.5 56.5t58.5 24.5t59 -24.5t24 -56.5t-15 -54t-40 -30l289 -688h-54l-103 248h-320l-103 -248h-51l287 687q-25 8 -40 30.5zM328 640q-1 -1 -4 -12q-14 -43 -27 -73l-110 -266h286l-110 265q-35 76 -35 86zM285 768q0 -20 13 -33.5
t32 -13.5t32 13.5t13 33.5t-13 34t-32 14t-32 -14t-13 -34z" />
    <glyph glyph-name="AE" unicode="&#xc6;" horiz-adv-x="847" 
d="M776 715v-42h-284v-263h257v-41h-257v-327h295v-42h-343v369h-153l-219 -369h-56l428 715h332zM444 410v224q-25 -50 -43 -80l-86 -144h129z" />
    <glyph glyph-name="Ccedilla" unicode="&#xc7;" horiz-adv-x="745" 
d="M448 -151q20 -25 46.5 -25t39.5 14t13 37t-13.5 37t-30.5 14t-30 -5l-29 12l21 55q-155 2 -265 108t-110 262t98 262.5t251 106.5q120 0 243 -40l-13 -40q-120 36 -230 36q-131 0 -214 -94t-83 -230t96.5 -231.5t231.5 -95.5q118 0 204 36l15 -34q-65 -38 -183 -45
l-11 -32q7 1 13 1q32 0 56 -22.5t24 -59.5t-25.5 -62t-67.5 -25t-69 38z" />
    <glyph glyph-name="Egrave" unicode="&#xc8;" horiz-adv-x="535" 
d="M132 0v715h332v-42h-284v-263h257v-41h-257v-327h295v-42h-343zM339 757l-155 80l57 23l133 -93z" />
    <glyph glyph-name="Eacute" unicode="&#xc9;" horiz-adv-x="535" 
d="M132 0v715h332v-42h-284v-263h257v-41h-257v-327h295v-42h-343zM402 810l-146 -53l-34 10l174 96z" />
    <glyph glyph-name="Ecircumflex" unicode="&#xca;" horiz-adv-x="535" 
d="M132 0v715h332v-42h-284v-263h257v-41h-257v-327h295v-42h-343zM297 802l-104 -51l-13 18l117 89l117 -89l-13 -18z" />
    <glyph glyph-name="Edieresis" unicode="&#xcb;" horiz-adv-x="535" 
d="M132 0v715h332v-42h-284v-263h257v-41h-257v-327h295v-42h-343zM154 760v53h53v-53h-53zM375 760v53h53v-53h-53z" />
    <glyph glyph-name="Igrave" unicode="&#xcc;" horiz-adv-x="312" 
d="M132 0v715h48v-715h-48zM196 757l-155 80l57 23l133 -93z" />
    <glyph glyph-name="Iacute" unicode="&#xcd;" horiz-adv-x="312" 
d="M132 0v715h48v-715h-48zM286 810l-146 -53l-34 10l174 96z" />
    <glyph glyph-name="Icircumflex" unicode="&#xce;" horiz-adv-x="312" 
d="M132 0v715h48v-715h-48zM156 802l-104 -51l-13 18l117 89l117 -89l-13 -18z" />
    <glyph glyph-name="Idieresis" unicode="&#xcf;" horiz-adv-x="312" 
d="M50 763v53h53v-53h-53zM209 763v53h53v-53h-53zM132 0v715h48v-715h-48z" />
    <glyph glyph-name="Eth" unicode="&#xd0;" horiz-adv-x="815" 
d="M6 398h126v317q102 7 206 7q165 0 276 -102.5t111 -278.5q0 -89 -28.5 -157.5t-78.5 -109.5q-103 -83 -257 -83q-101 0 -229 11v352h-126v44zM180 398h180v-44h-180v-311q65 -8 181 -8q141 0 226.5 76.5t85.5 230.5t-96.5 245t-238.5 91q-91 0 -158 -5v-275z" />
    <glyph glyph-name="Ntilde" unicode="&#xd1;" horiz-adv-x="875" 
d="M174 608l2 -82v-526h-44v721h22l474 -552q46 -51 74 -89q-4 48 -4 108v527h45v-721h-22l-484 563q-50 54 -64 73zM359 818q-38 0 -76 -61l-26 17q14 22 24.5 36t33 30t39 16t25.5 -1.5t19.5 -6t15 -6.5t18 -9t15.5 -8q48 -27 69 -27q38 0 76 61l26 -17q-14 -22 -24.5 -36
t-33 -30t-39 -16t-25.5 1.5t-19.5 6t-15 6.5t-18 9t-15.5 8q-48 27 -69 27z" />
    <glyph glyph-name="Ograve" unicode="&#xd2;" 
d="M90 358q0 156 99.5 262.5t251.5 106.5t252 -106.5t100 -262.5t-100 -263t-252 -107t-251.5 107t-99.5 263zM142 358q0 -138 83.5 -232t216 -94t216 94t83.5 232t-83.5 231.5t-216.5 93.5t-216 -93.5t-83 -231.5zM496 757l-155 80l57 23l133 -93z" />
    <glyph glyph-name="Oacute" unicode="&#xd3;" 
d="M90 358q0 156 99.5 262.5t251.5 106.5t252 -106.5t100 -262.5t-100 -263t-252 -107t-251.5 107t-99.5 263zM142 358q0 -138 83.5 -232t216 -94t216 94t83.5 232t-83.5 231.5t-216.5 93.5t-216 -93.5t-83 -231.5zM569 810l-146 -53l-34 10l174 96z" />
    <glyph glyph-name="Ocircumflex" unicode="&#xd4;" 
d="M90 358q0 156 99.5 262.5t251.5 106.5t252 -106.5t100 -262.5t-100 -263t-252 -107t-251.5 107t-99.5 263zM142 358q0 -138 83.5 -232t216 -94t216 94t83.5 232t-83.5 231.5t-216.5 93.5t-216 -93.5t-83 -231.5zM458 802l-104 -51l-13 18l117 89l117 -89l-13 -18z" />
    <glyph glyph-name="Otilde" unicode="&#xd5;" 
d="M90 358q0 156 99.5 262.5t251.5 106.5t252 -106.5t100 -262.5t-100 -263t-252 -107t-251.5 107t-99.5 263zM142 358q0 -138 83.5 -232t216 -94t216 94t83.5 232t-83.5 231.5t-216.5 93.5t-216 -93.5t-83 -231.5zM379 818q-38 0 -76 -61l-26 17q14 22 24.5 36t33 30t39 16
t25.5 -1.5t19.5 -6t15 -6.5t18 -9t15.5 -8q48 -27 69 -27q38 0 76 61l26 -17q-14 -22 -24.5 -36t-33 -30t-39 -16t-25.5 1.5t-19.5 6t-15 6.5t-18 9t-15.5 8q-48 27 -69 27z" />
    <glyph glyph-name="Odieresis" unicode="&#xd6;" 
d="M90 358q0 156 99.5 262.5t251.5 106.5t252 -106.5t100 -262.5t-100 -263t-252 -107t-251.5 107t-99.5 263zM142 358q0 -138 83.5 -232t216 -94t216 94t83.5 232t-83.5 231.5t-216.5 93.5t-216 -93.5t-83 -231.5zM321 760v53h53v-53h-53zM542 760v53h53v-53h-53z" />
    <glyph glyph-name="multiply" unicode="&#xd7;" horiz-adv-x="523" 
d="M101 510l160 -161l161 161l31 -31l-161 -161l161 -160l-31 -31l-161 160l-160 -160l-31 31l160 160l-160 161z" />
    <glyph glyph-name="Oslash" unicode="&#xd8;" 
d="M90 358q0 156 99.5 262.5t251.5 106.5q107 0 192 -57l61 89l32 -23l-61 -89q61 -51 94.5 -126t33.5 -163q0 -156 -100 -263t-252 -107q-107 0 -192 57l-60 -87l-32 22l61 88q-61 52 -94.5 127t-33.5 163zM741 358q0 156 -103 251l-363 -527q72 -50 166 -50
q133 0 216.5 94t83.5 232zM225 589.5q-83 -93.5 -83 -240t102 -242.5l363 526q-72 50 -166 50q-133 0 -216 -93.5z" />
    <glyph glyph-name="Ugrave" unicode="&#xd9;" horiz-adv-x="807" 
d="M404 -12q-141 0 -210.5 82t-69.5 224v421h48v-421q0 -264 231.5 -264t231.5 264v421h48v-421q0 -143 -69 -224.5t-210 -81.5zM447 757l-155 80l57 23l133 -93z" />
    <glyph glyph-name="Uacute" unicode="&#xda;" horiz-adv-x="807" 
d="M404 -12q-141 0 -210.5 82t-69.5 224v421h48v-421q0 -264 231.5 -264t231.5 264v421h48v-421q0 -143 -69 -224.5t-210 -81.5zM517 810l-146 -53l-34 10l174 96z" />
    <glyph glyph-name="Ucircumflex" unicode="&#xdb;" horiz-adv-x="807" 
d="M404 -12q-141 0 -210.5 82t-69.5 224v421h48v-421q0 -264 231.5 -264t231.5 264v421h48v-421q0 -143 -69 -224.5t-210 -81.5zM417 802l-104 -51l-13 18l117 89l117 -89l-13 -18z" />
    <glyph glyph-name="Udieresis" unicode="&#xdc;" horiz-adv-x="807" 
d="M404 -12q-141 0 -210.5 82t-69.5 224v421h48v-421q0 -264 231.5 -264t231.5 264v421h48v-421q0 -143 -69 -224.5t-210 -81.5zM280 760v53h53v-53h-53zM501 760v53h53v-53h-53z" />
    <glyph glyph-name="Yacute" unicode="&#xdd;" horiz-adv-x="619" 
d="M333 0h-48v256l-269 459h58l208 -362q18 -32 30 -56q4 13 28 54l208 364h55l-270 -461v-254zM412 810l-146 -53l-34 10l174 96z" />
    <glyph glyph-name="Thorn" unicode="&#xde;" horiz-adv-x="581" 
d="M132 0v715h48v-175q78 4 113 4q232 0 232 -180q0 -99 -83.5 -148.5t-205.5 -49.5h-15v33h10q102 0 172 38.5t70 120t-49.5 112.5t-138.5 31q-45 0 -105 -4v-497h-48z" />
    <glyph glyph-name="germandbls" unicode="&#xdf;" horiz-adv-x="978" 
d="M251 621q-54 0 -88 -26t-34 -73q0 -54 45 -97q32 -31 82.5 -65.5t69.5 -49.5t46 -41q49 -49 49 -113q0 -83 -55.5 -125.5t-155 -42.5t-166.5 52l24 35q68 -46 144 -46t118.5 32t42.5 90q0 50 -43 92q-30 30 -80.5 65t-70.5 50.5t-47 41.5q-51 51 -51 118t47.5 105
t131.5 38t151 -33l-17 -37q-62 30 -143 30zM744 621q-54 0 -88 -26t-34 -73q0 -54 45 -97q32 -31 82.5 -65.5t69.5 -49.5t45 -41q50 -49 50 -113q0 -83 -55.5 -125.5t-155 -42.5t-166.5 52l24 35q68 -46 144 -46t118.5 32t42.5 90q0 50 -42 92q-31 30 -81.5 65t-70.5 50.5
t-47 41.5q-51 51 -51 118t47.5 105t131 38t151.5 -33l-17 -37q-62 30 -143 30z" />
    <glyph glyph-name="agrave" unicode="&#xe0;" horiz-adv-x="597" 
d="M152 225l-93 -225h-47l272 653h27l274 -653h-51l-94 225h-288zM295 579q-15 -45 -27 -75l-100 -240h256l-99 239q-23 56 -30 76zM333 701l-155 80l57 23l133 -93z" />
    <glyph glyph-name="aacute" unicode="&#xe1;" horiz-adv-x="597" 
d="M152 225l-93 -225h-47l272 653h27l274 -653h-51l-94 225h-288zM295 579q-15 -45 -27 -75l-100 -240h256l-99 239q-23 56 -30 76zM423 754l-146 -53l-34 10l174 96z" />
    <glyph glyph-name="acircumflex" unicode="&#xe2;" horiz-adv-x="597" 
d="M152 225l-93 -225h-47l272 653h27l274 -653h-51l-94 225h-288zM295 579q-15 -45 -27 -75l-100 -240h256l-99 239q-23 56 -30 76zM293 752l-104 -51l-13 18l117 89l117 -89l-13 -18z" />
    <glyph glyph-name="atilde" unicode="&#xe3;" horiz-adv-x="597" 
d="M152 225l-93 -225h-47l272 653h27l274 -653h-51l-94 225h-288zM295 579q-15 -45 -27 -75l-100 -240h256l-99 239q-23 56 -30 76zM214 759q-38 0 -76 -61l-26 17q14 22 24.5 36t33 30t39 16t25.5 -1.5t19.5 -6t15 -6.5t18 -9t15.5 -8q48 -27 69 -27q38 0 76 61l26 -17
q-14 -22 -24.5 -36t-33 -30t-39 -16t-25.5 1.5t-19.5 6t-15 6.5t-18 9t-15.5 8q-48 27 -69 27z" />
    <glyph glyph-name="adieresis" unicode="&#xe4;" horiz-adv-x="597" 
d="M152 225l-93 -225h-47l272 653h27l274 -653h-51l-94 225h-288zM295 579q-15 -45 -27 -75l-100 -240h256l-99 239q-23 56 -30 76zM156 704v53h53v-53h-53zM377 704v53h53v-53h-53z" />
    <glyph glyph-name="aring" unicode="&#xe5;" horiz-adv-x="598" 
d="M231.5 651.5q-15.5 22.5 -15.5 54.5t23.5 56.5t58.5 24.5t59 -24.5t24 -56.5t-15.5 -54.5t-41.5 -30.5l262 -621h-49l-94 226h-292l-93 -226h-46l260 621q-25 8 -40.5 30.5zM296 582q-1 -1 -4 -11q-7 -23 -25 -66l-100 -242h260l-100 241q-31 69 -31 78zM253 702
q0 -20 13 -33.5t32 -13.5t32 13.5t13 33.5t-13 34t-32 14t-32 -14t-13 -34z" />
    <glyph glyph-name="ae" unicode="&#xe6;" horiz-adv-x="774" 
d="M700 650v-38h-258v-239h234v-38h-234v-297h268v-38h-311v335h-140l-198 -335h-51l389 650h301zM399 373v203q-21 -42 -39 -72l-78 -131h117z" />
    <glyph glyph-name="ccedilla" unicode="&#xe7;" horiz-adv-x="669" 
d="M400 -151q20 -25 46.5 -25t39.5 14t13 37t-13.5 37t-30.5 14t-30 -5l-29 12l22 57q-140 3 -239 98.5t-99 237t88.5 237.5t228.5 96q113 0 221 -35l-12 -38q-104 32 -215 32t-186.5 -84.5t-75.5 -207t87.5 -208.5t202.5 -86t191 32l15 -32q-59 -34 -166 -41l-12 -34
q7 1 13 1q32 0 56 -22.5t24 -59.5t-25.5 -62t-67.5 -25t-69 38z" />
    <glyph glyph-name="egrave" unicode="&#xe8;" horiz-adv-x="497" 
d="M120 0v649h303v-40h-257v-236h232v-39h-232v-292h267v-42h-313zM327 701l-155 80l57 23l133 -93z" />
    <glyph glyph-name="eacute" unicode="&#xe9;" horiz-adv-x="497" 
d="M120 0v649h303v-40h-257v-236h232v-39h-232v-292h267v-42h-313zM371 754l-146 -53l-34 10l174 96z" />
    <glyph glyph-name="ecircumflex" unicode="&#xea;" horiz-adv-x="497" 
d="M120 0v649h303v-40h-257v-236h232v-39h-232v-292h267v-42h-313zM275 752l-104 -51l-13 18l117 89l117 -89l-13 -18z" />
    <glyph glyph-name="edieresis" unicode="&#xeb;" horiz-adv-x="497" 
d="M120 0v649h303v-40h-257v-236h232v-39h-232v-292h267v-42h-313zM131 705v53h53v-53h-53zM352 705v53h53v-53h-53z" />
    <glyph glyph-name="igrave" unicode="&#xec;" horiz-adv-x="286" 
d="M120 0v649h46v-649h-46zM176 701l-155 80l57 23l133 -93z" />
    <glyph glyph-name="iacute" unicode="&#xed;" horiz-adv-x="286" 
d="M120 0v649h46v-649h-46zM266 754l-146 -53l-34 10l174 96z" />
    <glyph glyph-name="icircumflex" unicode="&#xee;" horiz-adv-x="286" 
d="M120 0v649h46v-649h-46zM143 752l-104 -51l-13 18l117 89l117 -89l-13 -18z" />
    <glyph glyph-name="idieresis" unicode="&#xef;" horiz-adv-x="286" 
d="M47 707v53h53v-53h-53zM186 707v53h53v-53h-53zM120 0v649h46v-649h-46z" />
    <glyph glyph-name="eth" unicode="&#xf0;" horiz-adv-x="739" 
d="M120 321h-113v40h113v288q80 6 188 6q150 0 250.5 -92.5t100.5 -251.5t-92.5 -239t-238.5 -80q-101 0 -208 10v319zM168 361h161v-40h-161v-280q60 -7 160 -7q128 0 205.5 69t77.5 208t-87.5 221t-215.5 82q-91 0 -140 -4v-249z" />
    <glyph glyph-name="ntilde" unicode="&#xf1;" horiz-adv-x="795" 
d="M120 0v653h22l430 -498q23 -26 42.5 -51.5t20.5 -26.5q-2 24 -2 94v478h42v-653h-22l-438 508l-55 67q2 -20 2 -94v-477h-42zM320 759q-38 0 -76 -61l-26 17q14 22 24.5 36t33 30t39 16t25.5 -1.5t19.5 -6t15 -6.5t18 -9t15.5 -8q48 -27 69 -27q38 0 76 61l26 -17
q-14 -22 -24.5 -36t-33 -30t-39 -16t-25.5 1.5t-19.5 6t-15 6.5t-18 9t-15.5 8q-48 27 -69 27z" />
    <glyph glyph-name="ograve" unicode="&#xf2;" horiz-adv-x="814" 
d="M174 87q-94 97 -94 237.5t94 237.5t233 97t233 -97t94 -237.5t-94 -237.5t-233 -97t-233 97zM207.5 533q-79.5 -85 -79.5 -208.5t79.5 -208t200 -84.5t199.5 84.5t79 208t-79 208.5t-199.5 85t-200 -85zM430 701l-155 80l57 23l133 -93z" />
    <glyph glyph-name="oacute" unicode="&#xf3;" horiz-adv-x="814" 
d="M174 87q-94 97 -94 237.5t94 237.5t233 97t233 -97t94 -237.5t-94 -237.5t-233 -97t-233 97zM207.5 533q-79.5 -85 -79.5 -208.5t79.5 -208t200 -84.5t199.5 84.5t79 208t-79 208.5t-199.5 85t-200 -85zM545 754l-146 -53l-34 10l174 96z" />
    <glyph glyph-name="ocircumflex" unicode="&#xf4;" horiz-adv-x="814" 
d="M174 87q-94 97 -94 237.5t94 237.5t233 97t233 -97t94 -237.5t-94 -237.5t-233 -97t-233 97zM207.5 533q-79.5 -85 -79.5 -208.5t79.5 -208t200 -84.5t199.5 84.5t79 208t-79 208.5t-199.5 85t-200 -85zM408 752l-104 -51l-13 18l117 89l117 -89l-13 -18z" />
    <glyph glyph-name="otilde" unicode="&#xf5;" horiz-adv-x="814" 
d="M174 87q-94 97 -94 237.5t94 237.5t233 97t233 -97t94 -237.5t-94 -237.5t-233 -97t-233 97zM207.5 533q-79.5 -85 -79.5 -208.5t79.5 -208t200 -84.5t199.5 84.5t79 208t-79 208.5t-199.5 85t-200 -85zM329 751q-38 0 -76 -61l-26 17q14 22 24.5 36t33 30t39 16
t25.5 -1.5t19.5 -6t15 -6.5t18 -9t15.5 -8q48 -27 69 -27q38 0 76 61l26 -17q-14 -22 -24.5 -36t-33 -30t-39 -16t-25.5 1.5t-19.5 6t-15 6.5t-18 9t-15.5 8q-48 27 -69 27z" />
    <glyph glyph-name="odieresis" unicode="&#xf6;" horiz-adv-x="814" 
d="M174 87q-94 97 -94 237.5t94 237.5t233 97t233 -97t94 -237.5t-94 -237.5t-233 -97t-233 97zM207.5 533q-79.5 -85 -79.5 -208.5t79.5 -208t200 -84.5t199.5 84.5t79 208t-79 208.5t-199.5 85t-200 -85zM271 704v53h53v-53h-53zM492 704v53h53v-53h-53z" />
    <glyph glyph-name="divide" unicode="&#xf7;" horiz-adv-x="494" 
d="M215 158q0 14 9.5 23t22.5 9t22.5 -9t9.5 -23t-9.5 -23t-22.5 -9t-22.5 9t-9.5 23zM215 466q0 14 9.5 23t22.5 9t22.5 -9t9.5 -23t-9.5 -23t-22.5 -9t-22.5 9t-9.5 23zM70 334h354v-44h-354v44z" />
    <glyph glyph-name="oslash" unicode="&#xf8;" horiz-adv-x="814" 
d="M80 325q0 140 94 237t233 97q94 0 173 -49l55 80l32 -23l-55 -80q57 -47 89.5 -115t32.5 -147q0 -140 -94 -237.5t-233 -97.5q-95 0 -174 49l-54 -78l-32 22l54 79q-57 46 -89 115t-32 148zM686 325q0 141 -99 227l-330 -478q67 -42 150 -42q121 0 200 84.5t79 208.5z
M128 325q0 -142 98 -227l330 477q-67 43 -149 43q-121 0 -200 -84.5t-79 -208.5z" />
    <glyph glyph-name="ugrave" unicode="&#xf9;" horiz-adv-x="762" 
d="M381 -10q-135 0 -201 77t-66 213v369h46v-369q0 -249 221 -249t221 249v369h46v-369q0 -136 -66 -213t-201 -77zM407 701l-155 80l57 23l133 -93z" />
    <glyph glyph-name="uacute" unicode="&#xfa;" horiz-adv-x="762" 
d="M381 -10q-135 0 -201 77t-66 213v369h46v-369q0 -249 221 -249t221 249v369h46v-369q0 -136 -66 -213t-201 -77zM496 754l-146 -53l-34 10l174 96z" />
    <glyph glyph-name="ucircumflex" unicode="&#xfb;" horiz-adv-x="762" 
d="M381 -10q-135 0 -201 77t-66 213v369h46v-369q0 -249 221 -249t221 249v369h46v-369q0 -136 -66 -213t-201 -77zM382 752l-104 -51l-13 18l117 89l117 -89l-13 -18z" />
    <glyph glyph-name="udieresis" unicode="&#xfc;" horiz-adv-x="762" 
d="M381 -10q-135 0 -201 77t-66 213v369h46v-369q0 -249 221 -249t221 249v369h46v-369q0 -136 -66 -213t-201 -77zM245 704v53h53v-53h-53zM466 704v53h53v-53h-53z" />
    <glyph glyph-name="yacute" unicode="&#xfd;" horiz-adv-x="559" 
d="M302 0h-45v232l-245 417h55l189 -322l25 -47q12 24 25 46l189 323h52l-245 -419v-230zM377 754l-146 -53l-34 10l174 96z" />
    <glyph glyph-name="thorn" unicode="&#xfe;" horiz-adv-x="527" 
d="M120 0v650h46v-159q70 4 100 4q211 0 211 -164q0 -90 -75.5 -135t-186.5 -45h-14v32h11q91 0 153.5 34t62.5 108t-44 101.5t-111 27.5t-107 -3v-451h-46z" />
    <glyph glyph-name="ydieresis" unicode="&#xff;" horiz-adv-x="559" 
d="M302 0h-45v232l-245 417h55l189 -322q22 -44 25 -47q6 13 25 46l189 323h52l-245 -419v-230zM364 704v53h53v-53h-53zM143 704v53h53v-53h-53z" />
    <glyph glyph-name="dotlessi" unicode="&#x131;" horiz-adv-x="284" 
d="M120 0v650h44v-650h-44z" />
    <glyph glyph-name="Lslash" unicode="&#x141;" horiz-adv-x="576" 
d="M177 0v320l-101 -61l-22 35l123 74v347h48v-318l122 75l21 -35l-143 -87v-306h329v-44h-377z" />
    <glyph glyph-name="lslash" unicode="&#x142;" horiz-adv-x="480" 
d="M120 0v277l-85 -52l-22 35l107 65v324h46v-296l108 66l21 -35l-129 -79v-263h298v-42h-344z" />
    <glyph glyph-name="OE" unicode="&#x152;" horiz-adv-x="1059" 
d="M656 0v61q-92 -73 -215 -73q-152 0 -251.5 107t-99.5 263t99.5 262.5t251.5 106.5q123 0 215 -73v61h332v-42h-284v-263h257v-41h-257v-327h295v-42h-343zM142 358q0 -138 83.5 -232t215 -94t215.5 92v467q-84 92 -216 92t-215 -93.5t-83 -231.5z" />
    <glyph glyph-name="oe" unicode="&#x153;" horiz-adv-x="972" 
d="M595 -1v55q-83 -66 -196 -66q-138 0 -228.5 97.5t-90.5 239.5t90.5 239t228.5 97q113 0 196 -66v55h303v-38h-259v-240h234v-37h-234v-298h269v-38h-313zM127 325q0 -126 75.5 -211.5t196 -85.5t196.5 84v425q-78 84 -197.5 84t-195 -85t-75.5 -211z" />
    <glyph glyph-name="Scaron" unicode="&#x160;" horiz-adv-x="547" 
d="M441 652q-73 31 -145 31q-146 0 -146 -108q0 -47 33 -87.5t80 -72t94 -64.5t80 -79t33 -100q0 -91 -61 -137.5t-168.5 -46.5t-183.5 55l24 36q72 -47 158 -47t132 34.5t46 99.5q0 45 -33 85.5t-80 73t-94 66.5t-80 81t-33 101q0 71 52.5 112.5t142 41.5t166.5 -36z
M176 858l104 -51l104 51l13 -18l-117 -89l-117 89z" />
    <glyph glyph-name="scaron" unicode="&#x161;" horiz-adv-x="485" 
d="M251 621q-54 0 -88 -26t-34 -73q0 -54 45 -97q32 -31 82.5 -65.5t69.5 -49.5t46 -41q49 -49 49 -113q0 -83 -55.5 -125.5t-155 -42.5t-166.5 52l24 35q68 -46 144 -46t118.5 32t42.5 90q0 50 -43 92q-30 30 -80.5 65t-70.5 50.5t-47 41.5q-51 51 -51 118t47.5 105
t131.5 38t151 -33l-17 -37q-62 30 -143 30zM149 808l104 -51l104 51l13 -18l-117 -89l-117 89z" />
    <glyph glyph-name="Ydieresis" unicode="&#x178;" horiz-adv-x="619" 
d="M333 0h-48v256l-269 459h58l208 -362l30 -56q8 19 28 54l208 364h55l-270 -461v-254zM172 760v53h53v-53h-53zM393 760v53h53v-53h-53z" />
    <glyph glyph-name="Zcaron" unicode="&#x17d;" horiz-adv-x="631" 
d="M557 715v-22l-421 -651h429v-42h-499v23l420 650h-394v42h465zM216 858l104 -51l104 51l13 -18l-117 -89l-117 89z" />
    <glyph glyph-name="zcaron" unicode="&#x17e;" horiz-adv-x="562" 
d="M503 649v-22l-382 -587h387v-40h-454v23l382 587h-357v39h424zM185 808l104 -51l104 51l13 -18l-117 -89l-117 89z" />
    <glyph glyph-name="florin" unicode="&#x192;" horiz-adv-x="429" 
d="M304 660q50 0 105 -15l-11 -35q-54 13 -105 13t-75 -32t-29 -117l-7 -122h175l-3 -38h-175l-21 -360q-6 -98 -41.5 -140t-106.5 -42q-26 0 -54 6l8 34q24 -3 47 -3q49 0 73.5 33t29.5 116l21 356h-98l3 38h97l8 126q6 99 42.5 140.5t116.5 41.5z" />
    <glyph glyph-name="circumflex" unicode="&#x2c6;" horiz-adv-x="314" 
d="M157 585l-104 -51l-13 18l117 89l117 -89l-13 -18z" />
    <glyph glyph-name="caron" unicode="&#x2c7;" horiz-adv-x="314" 
d="M53 641l104 -51l104 51l13 -18l-117 -89l-117 89z" />
    <glyph glyph-name="ring" unicode="&#x2da;" horiz-adv-x="245" 
d="M40 768q0 36 23.5 60.5t58.5 24.5t59 -24.5t24 -60t-24 -60.5t-59 -25t-58.5 24.5t-23.5 60.5zM77 768q0 -20 13 -33.5t32 -13.5t32 13.5t13 33.5t-13 34t-32 14t-32 -14t-13 -34z" />
    <glyph glyph-name="tilde" unicode="&#x2dc;" horiz-adv-x="425" 
d="M134 601q-38 0 -76 -61l-26 17q14 22 24.5 36t33 30t39 16t25.5 -1.5t19.5 -6t15 -6.5t18 -9t15.5 -8q48 -27 69 -27q38 0 76 61l26 -17q-14 -22 -24.5 -36t-33 -30t-39 -16t-25.5 1.5t-19.5 6t-15 6.5t-18 9t-15.5 8q-48 27 -69 27z" />
    <glyph glyph-name="endash" unicode="&#x2013;" horiz-adv-x="473" 
d="M0 364h473v-40h-473v40z" />
    <glyph glyph-name="emdash" unicode="&#x2014;" horiz-adv-x="632" 
d="M0 364h632v-40h-632v40z" />
    <glyph glyph-name="quoteleft" unicode="&#x2018;" horiz-adv-x="121" 
d="M89 715v-65l12 -61h-23l-42 77v49h53z" />
    <glyph glyph-name="quoteright" unicode="&#x2019;" horiz-adv-x="121" 
d="M32 715h53v-49l-42 -77h-23l12 61v65z" />
    <glyph glyph-name="quotesinglbase" unicode="&#x201a;" horiz-adv-x="121" 
d="M32 53h53v-49l-42 -77h-23l12 61v65z" />
    <glyph glyph-name="quotedblleft" unicode="&#x201c;" horiz-adv-x="245" 
d="M213 715v-65l12 -61h-23l-42 77v49h53zM89 715v-65l12 -61h-23l-42 77v49h53z" />
    <glyph glyph-name="quotedblright" unicode="&#x201d;" horiz-adv-x="245" 
d="M32 715h53v-49l-42 -77h-23l12 61v65zM156 715h53v-49l-42 -77h-23l12 61v65z" />
    <glyph glyph-name="quotedblbase" unicode="&#x201e;" horiz-adv-x="245" 
d="M32 53h53v-49l-42 -77h-23l12 61v65zM156 53h53v-49l-42 -77h-23l12 61v65z" />
    <glyph glyph-name="dagger" unicode="&#x2020;" horiz-adv-x="474" 
d="M70 498h150v217h44v-217h140v-42h-140v-684h-44v684h-150v42z" />
    <glyph glyph-name="daggerdbl" unicode="&#x2021;" horiz-adv-x="474" 
d="M70 498h150v217h44v-217h140v-42h-140v-247h140v-42h-140v-395h-44v395h-150v42h150v247h-150v42z" />
    <glyph glyph-name="bullet" unicode="&#x2022;" horiz-adv-x="244" 
d="M80 309v84h84v-84h-84z" />
    <glyph glyph-name="ellipsis" unicode="&#x2026;" horiz-adv-x="339" 
d="M30 0v53h53v-53h-53zM143 0v53h53v-53h-53zM256 0v53h53v-53h-53z" />
    <glyph glyph-name="perthousand" unicode="&#x2030;" horiz-adv-x="967" 
d="M70 561q0 74 34 117t88 43t87.5 -43t33.5 -116.5t-35.5 -118.5t-86.5 -45t-86 44.5t-35 118.5zM110 561q0 -57 23.5 -91t58 -34t57.5 34t23 91t-23 90t-57.5 33t-58 -33t-23.5 -90zM361 154q0 74 34 117t88 43t87.5 -43t33.5 -117t-35.5 -119t-86.5 -45t-86 45t-35 119z
M425 244q-23 -33 -23 -90.5t23 -91t58 -33.5t57.5 33.5t22.5 91t-22.5 90.5t-57.5 33t-58 -33zM90 -1l457 733l35 -21l-456 -732zM664 154q0 74 34 117t88 43t87.5 -43t33.5 -117t-35.5 -119t-86.5 -45t-86 45t-35 119zM728 244q-23 -33 -23 -90.5t23 -91t58 -33.5
t57.5 33.5t22.5 91t-22.5 90.5t-57.5 33t-58 -33z" />
    <glyph glyph-name="guilsinglleft" unicode="&#x2039;" horiz-adv-x="292" 
d="M213 146l-163 186l163 186l29 -24l-142 -162l142 -162z" />
    <glyph glyph-name="guilsinglright" unicode="&#x203a;" horiz-adv-x="292" 
d="M242 332l-163 -186l-29 24l142 162l-142 162l29 24z" />
    <glyph glyph-name="Euro" unicode="&#x20ac;" horiz-adv-x="524" 
d="M94 277q-4 33 -4 76.5t3 79.5h-79l11 42h74q21 121 87.5 186.5t176.5 65.5q63 0 105 -16v-45q-49 17 -105 17q-174 0 -212 -208h244l-11 -42h-239q-3 -36 -3 -79.5t4 -76.5h249l-11 -42h-232q39 -203 211 -203q68 0 105 16v-42q-39 -18 -111 -18q-208 0 -256 247h-87
l11 42h69z" />
    <glyph glyph-name="trademark" unicode="&#x2122;" horiz-adv-x="718" 
d="M475 415h-18l-93 225q0 -6 -3 -23l-33 -217h-32l50 312h22l94 -225q4 -14 7 -21q0 4 8 22l104 224h20l47 -312h-32l-31 217q-4 20 -4 27l-11 -27zM151 681h-101v29h234v-29h-102v-281h-31v281z" />
    <glyph glyph-name="minus" unicode="&#x2212;" horiz-adv-x="514" 
d="M70 366h374v-44h-374v44z" />
    <glyph glyph-name="fi" unicode="&#xfb01;" horiz-adv-x="797" 
d="M120 0v649h333v-40h-287v-236h262v-39h-262v-334h-46zM631 0v649h46v-649h-46z" />
    <glyph glyph-name="fl" unicode="&#xfb02;" horiz-adv-x="991" 
d="M120 0v649h333v-40h-287v-236h262v-39h-262v-334h-46zM631 0v649h46v-607h298v-42h-344z" />
    </font>
</defs>
</svg>
